<svg width="144" height="144" viewBox="0 0 144 144" fill="none" xmlns="http://www.w3.org/2000/svg">
<path d="M72 144C111.765 144 144 111.765 144 72C144 32.2355 111.765 0 72 0C32.2355 0 0 32.2355 0 72C0 111.765 32.2355 144 72 144Z" fill="#F7931A"/>
<path d="M104.351 63.09C105.764 53.658 98.5778 48.5865 88.7588 45.2025L91.9448 32.4225L84.1688 30.4875L81.0638 42.93C79.0208 42.417 76.9238 41.94 74.8313 41.463L77.9588 28.9395L70.1828 27L66.9968 39.7755C65.3048 39.3885 63.6398 39.0105 62.0288 38.6055L62.0378 38.565L51.3098 35.8875L49.2398 44.1945C49.2398 44.1945 55.0133 45.5175 54.8918 45.5985C58.0418 46.386 58.6088 48.4695 58.5143 50.1255L54.8873 64.683C55.1033 64.737 55.3823 64.818 55.6973 64.9395L54.8738 64.737L49.7888 85.131C49.4018 86.085 48.4253 87.5205 46.2203 86.976C46.3013 87.0885 40.5683 85.5675 40.5683 85.5675L36.7073 94.4685L46.8323 96.993C48.7133 97.4655 50.5583 97.9605 52.3718 98.424L49.1543 111.348L56.9258 113.283L60.1118 100.503C62.2358 101.075 64.2968 101.605 66.3128 102.109L63.1358 114.835L70.9118 116.771L74.1293 103.874C87.3953 106.384 97.3673 105.372 101.566 93.375C104.95 83.718 101.399 78.1425 94.4198 74.511C99.5048 73.341 103.33 69.9975 104.351 63.09ZM86.5763 88.011C84.1778 97.6725 67.9103 92.448 62.6363 91.1385L66.9113 74.016C72.1853 75.3345 89.0918 77.94 86.5763 88.011ZM88.9838 62.9505C86.7923 71.739 73.2563 67.2705 68.8688 66.177L72.7388 50.652C77.1263 51.7455 91.2698 53.784 88.9838 62.9505Z" fill="white"/>
</svg>
