<svg width="144" height="144" viewBox="0 0 144 144" fill="none" xmlns="http://www.w3.org/2000/svg">
<path d="M72 144C111.765 144 144 111.765 144 72C144 32.2355 111.765 0 72 0C32.2355 0 0 32.2355 0 72C0 111.765 32.2355 144 72 144Z" fill="#627EEA"/>
<path d="M74.2402 18V57.915L107.977 72.99L74.2402 18Z" fill="white" fill-opacity="0.602"/>
<path d="M74.241 18L40.5 72.99L74.241 57.915V18Z" fill="white"/>
<path d="M74.2402 98.856V125.977L107.999 79.272L74.2402 98.856Z" fill="white" fill-opacity="0.602"/>
<path d="M74.241 125.977V98.8515L40.5 79.272L74.241 125.977Z" fill="white"/>
<path d="M74.2402 92.5783L107.977 72.9898L74.2402 57.9238V92.5783Z" fill="white" fill-opacity="0.2"/>
<path d="M40.5 72.9898L74.241 92.5783V57.9238L40.5 72.9898Z" fill="white" fill-opacity="0.602"/>
</svg>
