<svg width="144" height="144" viewBox="0 0 144 144" fill="none" xmlns="http://www.w3.org/2000/svg">
<path d="M72 0C32.2 0 0 32.2 0 72C0 111.8 32.2 144 72 144C111.8 144 144 111.8 144 72C144 32.2 111.8 0 72 0Z" fill="#003399"/>
<path d="M71.9998 22.8999L70.4998 27.8999L65.2998 27.7999L69.5998 30.7999L67.8998 35.7999L72.0998 32.5999L76.2998 35.7999L74.5998 30.7999L78.8998 27.7999L73.6998 27.8999L71.9998 22.8999Z" fill="#FFCC00"/>
<path d="M73.4998 113.3L71.9998 108.3L70.4998 113.3L65.2998 113.2L69.5998 116.2L67.8998 121.2L72.0998 118L76.2998 121.2L74.5998 116.2L78.8998 113.2L73.4998 113.3Z" fill="#FFCC00"/>
<path d="M29.3001 75.2L33.5001 78.4L31.8001 73.4L36.1001 70.4L30.9001 70.5L29.4001 65.5L27.9001 70.5L22.6001 70.4L26.9001 73.4L25.2001 78.4L29.3001 75.2Z" fill="#FFCC00"/>
<path d="M51.2 28.8999L49.7 33.8999L44.5 33.7999L48.8 36.7999L47 41.7999L51.2 38.5999L55.4 41.7999L53.7 36.8999L58 33.8999L52.7 33.9999L51.2 28.8999Z" fill="#FFCC00"/>
<path d="M32.9001 52.6998L31.2001 57.6998L35.4001 54.4998L39.6001 57.6998L37.9001 52.6998L42.2001 49.6998L36.9001 49.7998L35.4001 44.7998L33.9001 49.7998L28.6001 49.6998L32.9001 52.6998Z" fill="#FFCC00"/>
<path d="M36.9001 92.6001L35.4001 87.6001L33.9001 92.6001L28.6001 92.5001L32.9001 95.5001L31.2001 100.5L35.4001 97.3001L39.6001 100.5L37.9001 95.5001L42.2001 92.5001L36.9001 92.6001Z" fill="#FFCC00"/>
<path d="M52.3 106.9L50.8 101.9L49.3 106.9L44 106.8L48.3 109.8L46.6 114.7L50.8 111.5L55 114.7L53.3 109.8L57.6 106.8L52.3 106.9Z" fill="#FFCC00"/>
<path d="M121.4 70.5001L116.1 70.6001L114.6 65.6001L113.1 70.6001L107.9 70.5001L112.2 73.5001L110.5 78.5001L114.7 75.3001L118.9 78.5001L117.2 73.5001L121.4 70.5001Z" fill="#FFCC00"/>
<path d="M90.4 36.8L88.7 41.7L92.9 38.5L97.1 41.7L95.4 36.8L99.7 33.8L94.3 34L92.8 29L91.3 34L86 33.9L90.4 36.8Z" fill="#FFCC00"/>
<path d="M106.2 52.6998L104.5 57.6998L108.7 54.4998L112.9 57.6998L111.2 52.6998L115.5 49.6998L110.2 49.7998L108.7 44.7998L107.2 49.7998L101.9 49.6998L106.2 52.6998Z" fill="#FFCC00"/>
<path d="M110.1 92.6001L108.6 87.6001L107.1 92.6001L101.9 92.5001L106.2 95.5001L104.5 100.5L108.7 97.3001L112.9 100.5L111.2 95.5001L115.5 92.5001L110.1 92.6001Z" fill="#FFCC00"/>
<path d="M94.6999 106.9L93.1999 101.9L91.6999 106.9L86.3999 106.8L90.6999 109.8L88.9999 114.7L93.1999 111.5L97.3999 114.7L95.6999 109.8L99.9999 106.8L94.6999 106.9Z" fill="#FFCC00"/>
</svg>
