<svg width="145" height="144" viewBox="0 0 145 144" fill="none" xmlns="http://www.w3.org/2000/svg">
<g clip-path="url(#clip0_10669_40004)">
<path fill-rule="evenodd" clip-rule="evenodd" d="M0.4375 0H274.04V11.077H0.4375V0ZM0.4375 22.1541H274.04V33.2311H0.4375V22.1541ZM0.4375 44.3081H274.04V55.3852H0.4375V44.3081ZM0.4375 66.4622H274.04V77.5392H0.4375V66.4622ZM0.4375 88.6162H274.04V99.6933H0.4375V88.6162ZM0.4375 110.77H274.04V121.847H0.4375V110.77ZM0.4375 132.924H274.04V144.001H0.4375V132.924Z" fill="#BD3D44"/>
<path fill-rule="evenodd" clip-rule="evenodd" d="M0.4375 11.0771H274.04V22.1542H0.4375V11.0771ZM0.4375 33.2312H274.04V44.3082H0.4375V33.2312ZM0.4375 55.3853H274.04V66.4623H0.4375V55.3853ZM0.4375 77.5393H274.04V88.6164H0.4375V77.5393ZM0.4375 99.6934H274.04V110.77H0.4375V99.6934ZM0.4375 121.847H274.04V132.924H0.4375V121.847Z" fill="white"/>
<path fill-rule="evenodd" clip-rule="evenodd" d="M0.4375 0H109.879V77.5392H0.4375V0Z" fill="#192F5D"/>
<path fill-rule="evenodd" clip-rule="evenodd" d="M9.52038 3.32324L10.6281 6.42481H13.7296L11.1819 8.30791L12.1789 11.2987L9.52038 9.41561L7.08343 11.2987L8.08036 8.30791L5.42188 6.42481H8.74498L9.52038 3.32324ZM27.7975 3.32324L28.7944 6.42481H32.0068L29.3483 8.30791L30.456 11.2987L27.7975 9.41561L25.139 11.2987L26.2467 8.30791L23.5882 6.42481H26.8005L27.7975 3.32324ZM46.0746 3.32324L47.0715 6.42481H50.2839L47.6254 8.30791L48.7331 11.2987L46.0746 9.41561L43.4161 11.2987L44.5238 8.30791L41.8653 6.42481H45.0776L46.0746 3.32324ZM64.2409 3.32324L65.3486 6.42481H68.4502L65.9025 8.30791L66.8994 11.2987L64.2409 9.41561L61.6932 11.2987L62.6901 8.30791L60.0316 6.42481H63.3548L64.2409 3.32324ZM82.518 3.32324L83.515 6.42481H86.7273L84.0688 8.30791L85.1765 11.2987L82.4072 9.41561L79.8595 11.2987L80.8565 8.30791L78.198 6.42481H81.4103L82.518 3.32324ZM100.795 3.32324L101.792 6.42481H105.004L102.346 8.30791L103.454 11.2987L100.795 9.41561L98.1366 11.2987L99.2443 8.30791L96.5859 6.42481H99.7982L100.795 3.32324ZM18.7143 11.0772L19.7112 14.1787H22.9236L20.2651 16.0618L21.3728 19.0526L18.7143 17.1695L16.0558 19.0526L17.1635 16.0618L14.505 14.1787H17.7174L18.7143 11.0772ZM36.8806 11.0772L37.9883 14.1787H41.0899L38.5422 16.0618L39.5391 19.0526L36.8806 17.1695L34.3329 19.0526L35.3299 16.0618L32.6714 14.1787H35.9945L36.8806 11.0772ZM55.1577 11.0772L56.1547 14.1787H59.367L56.7085 16.0618L57.8162 19.0526L55.1577 17.1695L52.4993 19.0526L53.607 16.0618L50.9485 14.1787H54.1608L55.1577 11.0772ZM73.4349 11.0772L74.4318 14.1787H77.6441L74.9856 16.0618L76.0933 19.0526L73.4349 17.1695L70.7764 19.0526L71.8841 16.0618L69.2256 14.1787H72.4379L73.4349 11.0772ZM91.6012 11.0772L92.7089 14.1787H95.6997L93.152 16.0618L94.1489 19.0526L91.4904 17.1695L88.9427 19.0526L89.9396 16.0618L87.2811 14.1787H90.6043L91.6012 11.0772ZM9.63115 18.8311L10.5173 21.9327H13.8404L11.1819 23.8158L12.1789 26.8066L9.52038 24.9235L7.08343 26.8066L8.08036 23.8158L5.42188 21.9327H8.74498L9.63115 18.8311ZM27.7975 18.8311L28.7944 21.9327H32.0068L29.459 23.8158L30.456 26.8066L27.7975 24.9235L25.2498 26.8066L26.2467 23.8158L23.5882 21.9327H26.8005L27.7975 18.8311ZM46.0746 18.8311L47.0715 21.9327H50.2839L47.6254 23.8158L48.7331 26.8066L46.0746 24.9235L43.4161 26.8066L44.5238 23.8158L41.8653 21.9327H45.0776L46.0746 18.8311ZM64.2409 18.8311L65.3486 21.9327H68.4502L65.9025 23.8158L66.8994 26.8066L64.2409 24.9235L61.6932 26.8066L62.6901 23.8158L60.0316 21.9327H63.3548L64.2409 18.8311ZM82.518 18.8311L83.515 21.9327H86.7273L84.1796 23.8158L85.1765 26.8066L82.518 24.9235L79.9703 26.8066L80.9672 23.8158L78.3087 21.9327H81.5211L82.518 18.8311ZM100.795 18.8311L101.792 21.9327H105.004L102.346 23.8158L103.454 26.8066L100.795 24.9235L98.1366 26.8066L99.2443 23.8158L96.5859 21.9327H99.7982L100.795 18.8311ZM18.7143 26.585L19.7112 29.6866H22.9236L20.2651 31.5697L21.3728 34.5605L18.7143 32.6774L16.0558 34.5605L17.1635 31.5697L14.505 29.6866H17.7174L18.7143 26.585ZM36.8806 26.585L37.9883 29.6866H41.0899L38.5422 31.5697L39.5391 34.5605L36.8806 32.6774L34.3329 34.5605L35.3299 31.5697L32.6714 29.6866H35.9945L36.8806 26.585ZM55.1577 26.585L56.1547 29.6866H59.367L56.8193 31.5697L57.8162 34.5605L55.1577 32.6774L52.61 34.5605L53.607 31.5697L50.9485 29.6866H54.1608L55.1577 26.585ZM73.4349 26.585L74.4318 29.6866H77.6441L74.9856 31.5697L76.0933 34.5605L73.4349 32.6774L70.7764 34.5605L71.8841 31.5697L69.2256 29.6866H72.4379L73.4349 26.585ZM91.6012 26.585L92.7089 29.6866H95.6997L93.152 31.5697L94.1489 34.5605L91.4904 32.6774L88.9427 34.5605L89.9396 31.5697L87.2811 29.6866H90.6043L91.6012 26.585ZM9.63115 34.3389L10.5173 37.4405H13.8404L11.1819 39.3236L12.1789 42.3144L9.52038 40.4313L7.08343 42.3144L8.08036 39.3236L5.42188 37.4405H8.74498L9.63115 34.3389ZM27.7975 34.3389L28.7944 37.4405H32.0068L29.459 39.3236L30.456 42.3144L27.7975 40.4313L25.2498 42.3144L26.2467 39.3236L23.5882 37.4405H26.8005L27.7975 34.3389ZM46.0746 34.3389L47.0715 37.4405H50.2839L47.6254 39.3236L48.7331 42.3144L46.0746 40.4313L43.4161 42.3144L44.5238 39.3236L41.8653 37.4405H45.0776L46.0746 34.3389ZM64.2409 34.3389L65.3486 37.4405H68.4502L65.9025 39.3236L66.8994 42.3144L64.2409 40.4313L61.6932 42.3144L62.6901 39.3236L60.0316 37.4405H63.3548L64.2409 34.3389ZM82.518 34.3389L83.515 37.4405H86.7273L84.1796 39.3236L85.1765 42.3144L82.518 40.4313L79.9703 42.3144L80.9672 39.3236L78.3087 37.4405H81.5211L82.518 34.3389ZM100.795 34.3389L101.792 37.4405H105.004L102.346 39.3236L103.454 42.3144L100.795 40.4313L98.1366 42.3144L99.2443 39.3236L96.5859 37.4405H99.7982L100.795 34.3389ZM18.7143 42.0929L19.7112 45.1944H22.9236L20.2651 47.0775L21.3728 50.0683L18.7143 48.1852L16.0558 50.0683L17.1635 47.0775L14.505 45.1944H17.7174L18.7143 42.0929ZM36.8806 42.0929L37.9883 45.1944H41.0899L38.5422 47.0775L39.5391 50.0683L36.8806 48.1852L34.3329 50.0683L35.3299 47.0775L32.6714 45.1944H35.9945L36.8806 42.0929ZM55.1577 42.0929L56.1547 45.1944H59.367L56.8193 47.0775L57.8162 50.0683L55.1577 48.1852L52.61 50.0683L53.607 47.0775L50.9485 45.1944H54.1608L55.1577 42.0929ZM73.4349 42.0929L74.4318 45.1944H77.6441L74.9856 47.0775L76.0933 50.0683L73.4349 48.1852L70.7764 50.0683L71.8841 47.0775L69.2256 45.1944H72.4379L73.4349 42.0929ZM91.6012 42.0929L92.7089 45.1944H95.6997L93.152 47.0775L94.1489 50.0683L91.4904 48.1852L88.9427 50.0683L89.9396 47.0775L87.2811 45.1944H90.6043L91.6012 42.0929ZM9.63115 49.8468L10.5173 52.9483H13.8404L11.1819 54.8314L12.1789 57.8222L9.52038 55.9391L7.08343 57.8222L8.08036 54.8314L5.42188 52.9483H8.74498L9.63115 49.8468ZM27.7975 49.8468L28.7944 52.9483H32.0068L29.459 54.8314L30.456 57.8222L27.7975 55.9391L25.2498 57.8222L26.2467 54.8314L23.5882 52.9483H26.8005L27.7975 49.8468ZM46.0746 49.8468L47.0715 52.9483H50.2839L47.6254 54.8314L48.7331 57.8222L46.0746 55.9391L43.4161 57.8222L44.5238 54.8314L41.8653 52.9483H45.0776L46.0746 49.8468ZM64.2409 49.8468L65.3486 52.9483H68.4502L65.9025 54.8314L66.8994 57.8222L64.2409 55.9391L61.6932 57.8222L62.6901 54.8314L60.0316 52.9483H63.3548L64.2409 49.8468ZM82.518 49.8468L83.515 52.9483H86.7273L84.1796 54.8314L85.1765 57.8222L82.518 55.9391L79.9703 57.8222L80.9672 54.8314L78.3087 52.9483H81.5211L82.518 49.8468ZM100.795 49.8468L101.792 52.9483H105.004L102.346 54.8314L103.454 57.8222L100.795 55.9391L98.1366 57.8222L99.2443 54.8314L96.5859 52.9483H99.7982L100.795 49.8468ZM18.7143 57.6007L19.7112 60.7023H22.9236L20.2651 62.5854L21.3728 65.5762L18.7143 63.6931L16.0558 65.5762L17.1635 62.5854L14.505 60.7023H17.7174L18.7143 57.6007ZM36.8806 57.6007L37.9883 60.7023H41.0899L38.5422 62.5854L39.5391 65.5762L36.8806 63.6931L34.3329 65.5762L35.3299 62.5854L32.6714 60.7023H35.9945L36.8806 57.6007ZM55.1577 57.6007L56.1547 60.7023H59.367L56.8193 62.5854L57.8162 65.5762L55.1577 63.6931L52.61 65.5762L53.607 62.5854L50.9485 60.7023H54.1608L55.1577 57.6007ZM73.4349 57.6007L74.4318 60.7023H77.6441L74.9856 62.5854L76.0933 65.5762L73.4349 63.6931L70.7764 65.5762L71.8841 62.5854L69.2256 60.7023H72.4379L73.4349 57.6007ZM91.6012 57.6007L92.7089 60.7023H95.6997L93.152 62.5854L94.1489 65.5762L91.4904 63.6931L88.9427 65.5762L89.9396 62.5854L87.2811 60.7023H90.6043L91.6012 57.6007ZM9.63115 65.3546L10.5173 68.4562H13.8404L11.1819 70.3393L12.1789 73.3301L9.52038 71.447L7.08343 73.3301L8.08036 70.3393L5.42188 68.4562H8.74498L9.63115 65.3546ZM27.7975 65.3546L28.7944 68.4562H32.0068L29.459 70.3393L30.456 73.3301L27.7975 71.447L25.2498 73.3301L26.2467 70.3393L23.5882 68.4562H26.8005L27.7975 65.3546ZM46.0746 65.3546L47.0715 68.4562H50.2839L47.6254 70.3393L48.7331 73.3301L46.0746 71.447L43.4161 73.3301L44.5238 70.3393L41.8653 68.4562H45.0776L46.0746 65.3546ZM64.2409 65.3546L65.3486 68.4562H68.4502L65.9025 70.3393L66.8994 73.3301L64.2409 71.447L61.6932 73.3301L62.6901 70.3393L60.0316 68.4562H63.3548L64.2409 65.3546ZM82.518 65.3546L83.515 68.4562H86.7273L84.1796 70.3393L85.1765 73.3301L82.518 71.447L79.9703 73.3301L80.9672 70.3393L78.3087 68.4562H81.5211L82.518 65.3546ZM100.795 65.3546L101.792 68.4562H105.004L102.346 70.3393L103.454 73.3301L100.795 71.447L98.1366 73.3301L99.2443 70.3393L96.5859 68.4562H99.7982L100.795 65.3546Z" fill="white"/>
</g>
<defs>
<clipPath id="clip0_10669_40004">
<path d="M0.4375 72C0.4375 32.2355 32.673 0 72.4375 0C112.202 0 144.438 32.2355 144.438 72C144.438 111.765 112.202 144 72.4375 144C32.673 144 0.4375 111.765 0.4375 72Z" fill="white"/>
</clipPath>
</defs>
</svg>
